<svg xmlns="http://www.w3.org/2000/svg" version="1.1" viewBox="0 0 1024 1024">


<path d="M0 0 C3.48843316 2.02977416 5.76191019 4.64286528 8 8 C8.32516626 12.47103614 7.96338639 15.07322721 6 19 C5.93453102 21.51047485 5.93453102 21.51047485 7 24 C8.175625 25.11375 8.175625 25.11375 9.375 26.25 C15.03147649 32.17583251 15.44694184 40.15832967 16.4609375 48.00390625 C17.06486715 52.64705953 17.84461089 57.25876139 18.625 61.875 C18.76035156 62.6786499 18.89570312 63.4822998 19.03515625 64.31030273 C19.35538194 66.20710349 19.67748093 68.10358785 20 70 C20.66386719 70.15855469 21.32773437 70.31710937 22.01171875 70.48046875 C27.61602281 71.96131406 31.35868969 73.22078022 35 78 C36.3123507 80.41748814 36.93599991 82.53759938 37.3125 85.2578125 C38.82277637 95.54657028 44.8255114 100.27062791 52.80859375 106.30859375 C65.44995036 116.06564796 73.76796978 131.26052568 76 147 C76.27012293 152.08025865 76.27199409 157.16752567 76.21484375 162.25390625 C76.32384803 168.83608756 77.3051591 172.32498171 81.62841797 177.31494141 C83.43460804 179.53393818 83.82054564 181.2900264 83.9375 184.125 C83.97617187 184.9603125 84.01484375 185.795625 84.0546875 186.65625 C83.98796947 189.5155941 83.65922998 192.21658451 83 195 C79.58864174 194.7473068 78.78062489 193.76495524 76.375 191.1875 C72.93138568 186.5658071 71.76039751 183.8857423 71.65625 178.08984375 C71.62660156 176.93419922 71.59695313 175.77855469 71.56640625 174.58789062 C71.54449219 173.38326172 71.52257812 172.17863281 71.5 170.9375 C71.34146647 162.41865406 70.8271855 154.3381273 69 146 C68.54846691 149.99512715 68.23786035 153.98700758 68 158 C67.94714844 158.82081055 67.89429688 159.64162109 67.83984375 160.48730469 C66.83042374 178.32686226 69.45277068 194.03221843 79.4375 209.125 C85.84433002 218.84699206 82.70995503 228.44207276 80.796875 239.2421875 C78.79412582 250.81731843 77.85389513 262.53202251 77.24609375 274.25390625 C77 277 77 277 76 278 C74.5112814 278.08669432 73.018555 278.10703494 71.52734375 278.09765625 C70.62822266 278.09443359 69.72910156 278.09121094 68.80273438 278.08789062 C67.85720703 278.07951172 66.91167969 278.07113281 65.9375 278.0625 C64.5134082 278.05573242 64.5134082 278.05573242 63.06054688 278.04882812 C60.70696935 278.0370011 58.35351523 278.02052025 56 278 C55.40234375 276.15625 55.40234375 276.15625 55 274 C57.60665091 269.82935855 60.88857886 267.59198289 65 265 C70.425127 259.574873 70.30178358 247.19166253 70.3125 239.75 C70.06413881 224.0562067 64.94605344 213.74991602 55.89624023 201.23876953 C53 197.20279075 53 197.20279075 53 195 C52.34 195 51.68 195 51 195 C50.94578777 198.04190863 50.90622452 201.08283999 50.875 204.125 C50.84986328 205.40890625 50.84986328 205.40890625 50.82421875 206.71875 C50.7866729 211.599711 51.19035973 215.39677057 53 220 C54.24076861 228.13392756 50.51202197 232.47885127 46 239 C38.93170216 250.06922115 33.24347629 260.76205862 29.015625 273.19140625 C28 276 28 276 27 277 C25.5112814 277.08669432 24.018555 277.10703494 22.52734375 277.09765625 C21.62822266 277.09443359 20.72910156 277.09121094 19.80273438 277.08789062 C18.85720703 277.07951172 17.91167969 277.07113281 16.9375 277.0625 C15.5134082 277.05573242 15.5134082 277.05573242 14.06054688 277.04882812 C11.70696935 277.0370011 9.35351523 277.02052025 7 277 C7.72660821 273.66775681 8.38178681 272.28666849 11.0625 270.125 C11.69414063 269.60035156 12.32578125 269.07570313 12.9765625 268.53515625 C15 267 15 267 16.9609375 265.80859375 C27.5628479 259.12478067 32.23100381 244.62352638 35 233 C38.9602508 212.85322077 35.01610014 192.56186168 25 175 C23.9458482 171.83754459 23.68724328 169.13051782 23.4375 165.8125 C23.35371094 164.72582031 23.26992188 163.63914062 23.18359375 162.51953125 C23.12300781 161.68808594 23.06242188 160.85664062 23 160 C21.54980469 160.79664063 21.54980469 160.79664063 20.0703125 161.609375 C1.96305771 171.47990613 -14.3419253 175.7506972 -35 175 C-34.86669768 183.32533579 -34.05324266 190.94522232 -31.6875 198.9375 C-31.48680908 199.62191162 -31.28611816 200.30632324 -31.0793457 201.01147461 C-29.98209669 204.52173617 -28.71985846 207.50534532 -26.8359375 210.6640625 C-23.92828773 216.2880783 -24.70600098 222.2746653 -24.9375 228.4375 C-25.13910179 238.14210612 -24.79485748 247.01905669 -22.65625 256.484375 C-21.37170935 263.36584275 -22.01087175 269.33056999 -24 276 C-25 277 -25 277 -27.40844727 277.11352539 C-28.45057373 277.10828857 -29.4927002 277.10305176 -30.56640625 277.09765625 C-31.69111328 277.09443359 -32.81582031 277.09121094 -33.97460938 277.08789062 C-35.75061523 277.07532227 -35.75061523 277.07532227 -37.5625 277.0625 C-38.75037109 277.05798828 -39.93824219 277.05347656 -41.16210938 277.04882812 C-44.10812226 277.03699675 -47.05403681 277.02051287 -50 277 C-50.19677734 272.23925781 -50.19677734 272.23925781 -48.42578125 270.0859375 C-47.72839844 269.52132813 -47.03101563 268.95671875 -46.3125 268.375 C-45.58417969 267.77171875 -44.85585938 267.1684375 -44.10546875 266.546875 C-42 265 -42 265 -39.125 263.625 C-36.17232059 261.36706869 -35.88072657 259.36201444 -35.2890625 255.765625 C-34.28062475 246.11732869 -34.86358925 238.14347219 -38.0144043 229.03295898 C-39.56397006 224.54413324 -40.58902987 220.20099118 -41.375 215.5 C-42.94778528 207.02840658 -46.3263663 199.72426048 -50 192 C-50.98313028 189.87683086 -51.96282673 187.75206473 -52.9375 185.625 C-53.33839844 184.77164063 -53.73929688 183.91828125 -54.15234375 183.0390625 C-55 181 -55 181 -55 179 C-55.66 179 -56.32 179 -57 179 C-57.391875 180.216875 -57.78375 181.43375 -58.1875 182.6875 C-59.52467231 186.7181194 -61.01699747 190.66979383 -62.5625 194.625 C-65.15101324 201.35668909 -66.97508767 207.01098783 -67.1875 214.25 C-67.66559173 221.70310862 -70.70066863 226.0917164 -75 232 C-79.70862419 239.30761075 -83.29922312 246.04417865 -84.875 254.625 C-85.58580717 258.17903583 -86.0946184 259.11308052 -88.5625 262.0625 C-91.74113457 265.89316217 -91.59377613 268.12531352 -92 273 C-94 275 -94 275 -96.33837891 275.22705078 C-97.29147949 275.21657715 -98.24458008 275.20610352 -99.2265625 275.1953125 C-100.2578125 275.18886719 -101.2890625 275.18242188 -102.3515625 275.17578125 C-103.43179688 275.15902344 -104.51203125 275.14226562 -105.625 275.125 C-106.71296875 275.11597656 -107.8009375 275.10695313 -108.921875 275.09765625 C-111.61480152 275.07403409 -114.30729255 275.04109556 -117 275 C-116.2734375 270.2578125 -116.2734375 270.2578125 -113.8125 267.9375 C-111 266 -111 266 -107.9375 264.25 C-105.07324246 262.0561006 -104.53537201 261.40647893 -103.1875 258.3125 C-101.56392068 254.60828332 -99.54902606 252.46547172 -96.5625 249.75 C-87.95468984 241.39577508 -86.16680611 230.35477963 -83.78613281 219.00512695 C-82.70652458 213.87057251 -81.38183091 208.98966779 -79.66015625 204.03491211 C-76.56235144 194.48602043 -74.49621273 179.28643204 -78.26953125 169.8125 C-80.59400034 165.89265304 -80.59400034 165.89265304 -84 163 C-87.26894694 162.71369185 -90.48283458 163.01941419 -93.75 163.25 C-104.66487268 163.64277718 -111.99565753 160.96786911 -121 155 C-121.91523438 154.40316406 -122.83046875 153.80632812 -123.7734375 153.19140625 C-135.93167137 144.44636428 -141.53394988 131.38741051 -144.31640625 117.06640625 C-145.93651419 109.79906493 -150.35089925 106.59946111 -156.29296875 102.67578125 C-163.51126295 98.20731341 -169.01191865 95.44602602 -177.65234375 95.43359375 C-180 95 -180 95 -181.7890625 93.18359375 C-183.59218905 89.93214942 -183.4419658 87.66200234 -183 84 C-180.54042084 78.98245851 -177.26405216 75.86221027 -172 74 C-167.77668052 73.5720962 -163.61206244 73.71279227 -159.375 73.875 C-157.15391276 73.94408912 -154.93252808 74.00431731 -152.7109375 74.0546875 C-151.73431152 74.09062012 -150.75768555 74.12655273 -149.75146484 74.16357422 C-146.77341663 73.98652965 -144.7117216 73.19719624 -142 72 C-136.00648728 71.34476067 -130.6641712 72.0298535 -125 74 C-124.34 73.34 -123.68 72.68 -123 72 C-120.4375 71.8125 -120.4375 71.8125 -118 72 C-117 73 -117 73 -116.8125 75.875 C-117 79 -117 79 -119 82 C-118.63956796 86.10554616 -117.47534692 89.61353096 -116 93.4375 C-113.87339821 99.5352829 -113.4852537 105.26610175 -113.37109375 111.65234375 C-112.96906979 115.27902302 -112.19255506 117.11614522 -110 120 C-105.66395075 122.8906995 -102.08350275 122.7737337 -97 122 C-85.80737903 118.07306807 -79.79463246 107.12932171 -73.45581055 97.80297852 C-66.64053151 87.80054145 -61.34922095 82.46938347 -50 78 C-49.12601563 77.62488281 -48.25203125 77.24976563 -47.3515625 76.86328125 C-45 76 -45 76 -42 76 C-42.44870082 71.27409674 -42.44870082 71.27409674 -44.1875 66.9375 C-45 65 -45 65 -44.3125 61.875 C-43 59 -43 59 -40 57 C-38.865625 57.0825 -37.73125 57.165 -36.5625 57.25 C-29.41194447 57.44862654 -22.6470191 53.20136712 -17.30859375 48.76171875 C-14.63163496 45.55933319 -13.41124224 42.4357539 -12.25 38.5 C-12.04246094 37.84902344 -11.83492187 37.19804687 -11.62109375 36.52734375 C-10.53221655 33.04996173 -9.63476573 29.58780628 -9 26 C-9.639375 25.566875 -10.27875 25.13375 -10.9375 24.6875 C-13.60074857 22.50847844 -13.91205356 20.80006828 -14.28125 17.44140625 C-14.3534375 16.49136719 -14.425625 15.54132813 -14.5 14.5625 C-14.75161693 11.26002785 -15.09507301 8.18986763 -16 5 C-10.56868505 0.95540376 -6.83088461 -1.10175558 0 0 Z " fill="#543B24" transform="translate(546,363)"/>
<path d="M0 0 C0.94189116 -0.00260775 1.88378231 -0.00521549 2.85421562 -0.00790226 C3.9011767 -0.00567154 4.94813778 -0.00344082 6.02682495 -0.0011425 C7.12953295 -0.00270249 8.23224094 -0.00426248 9.36836433 -0.00586975 C13.09421212 -0.00988495 16.82001977 -0.00668809 20.54586792 -0.00355339 C23.20445883 -0.0049072 25.8630469 -0.0066506 28.52163696 -0.00886345 C35.01162278 -0.01332185 41.50159707 -0.01234437 47.99158335 -0.00945081 C53.26376853 -0.00719705 58.53595046 -0.00688413 63.80813599 -0.00797462 C64.93152097 -0.00820447 64.93152097 -0.00820447 66.0776006 -0.00843897 C67.59878334 -0.00875868 69.11996607 -0.00908289 70.64114881 -0.00941156 C84.92222391 -0.01226656 99.2032926 -0.00897902 113.48436666 -0.00361119 C125.75161508 0.00085686 138.01885404 0.00008094 150.28610229 -0.00452995 C164.51431624 -0.00987537 178.74252456 -0.01199186 192.97073936 -0.00891769 C194.48648453 -0.00859912 196.00222969 -0.00828475 197.51797485 -0.00797462 C198.63678596 -0.00774321 198.63678596 -0.00774321 199.77819932 -0.00750712 C205.0471314 -0.00664187 210.31605992 -0.00810502 215.58499146 -0.01045418 C222.00163581 -0.01325201 228.41826793 -0.01251427 234.83491087 -0.00717343 C238.11193098 -0.00453619 241.3889263 -0.0040655 244.66594696 -0.00682259 C248.21041406 -0.00953095 251.75482258 -0.00615682 255.29928589 -0.0011425 C256.86972751 -0.00448858 256.86972751 -0.00448858 258.47189522 -0.00790226 C259.41378637 -0.00529452 260.35567753 -0.00268677 261.32611084 0 C262.55502202 0.00024353 262.55502202 0.00024353 263.80875969 0.00049198 C265.66305542 0.12584114 265.66305542 0.12584114 266.66305542 1.12584114 C266.78805542 4.12584114 266.78805542 4.12584114 266.66305542 7.12584114 C265.08657389 8.70232268 263.51577095 8.25124837 261.32611084 8.25168228 C260.38421968 8.25429003 259.44232853 8.25689778 258.47189522 8.25958455 C257.42493414 8.25735382 256.37797306 8.2551231 255.29928589 8.25282478 C253.64522389 8.25516477 253.64522389 8.25516477 251.95774651 8.25755203 C248.23189871 8.26156723 244.50609107 8.25837037 240.78024292 8.25523567 C238.12165201 8.25658948 235.46306394 8.25833288 232.80447388 8.26054573 C226.31448806 8.26500413 219.82451377 8.26402665 213.33452749 8.26113309 C208.06234231 8.25887933 202.79016038 8.25856641 197.51797485 8.25965691 C196.39458987 8.25988676 196.39458987 8.25988676 195.24851024 8.26012125 C193.7273275 8.26044096 192.20614477 8.26076517 190.68496203 8.26109384 C176.40388693 8.26394884 162.12281824 8.2606613 147.84174418 8.25529347 C135.57449576 8.25082542 123.3072568 8.25160134 111.04000854 8.25621223 C96.8117946 8.26155765 82.58358628 8.26367414 68.35537148 8.26059997 C66.83962631 8.2602814 65.32388115 8.25996703 63.80813599 8.25965691 C62.68932488 8.25942549 62.68932488 8.25942549 61.54791152 8.2591894 C56.27897944 8.25832415 51.01005092 8.25978731 45.74111938 8.26213646 C39.32447503 8.2649343 32.90784291 8.26419655 26.49119997 8.25885572 C23.21417986 8.25621847 19.93718454 8.25574778 16.66016388 8.25850487 C13.11569678 8.26121323 9.57128826 8.2578391 6.02682495 8.25282478 C4.45638333 8.25617087 4.45638333 8.25617087 2.85421562 8.25958455 C1.44137889 8.25567293 1.44137889 8.25567293 0 8.25168228 C-1.22891118 8.25143875 -1.22891118 8.25143875 -2.48264885 8.2511903 C-4.33694458 8.12584114 -4.33694458 8.12584114 -5.33694458 7.12584114 C-5.46194458 4.12584114 -5.46194458 4.12584114 -5.33694458 1.12584114 C-3.76046305 -0.45064039 -2.18966011 0.00043392 0 0 Z " fill="#523B24" transform="translate(393.3369445800781,646.8741588592529)"/>
<path d="M0 0 C0.99 0.33 1.98 0.66 3 1 C3.8515625 3.00390625 3.8515625 3.00390625 4.625 5.5625 C7.26543089 12.58022317 12.03130776 16.8777688 18.5859375 20.3828125 C20.70354806 21.33807531 22.81444083 22.2146454 25 23 C25 23.66 25 24.32 25 25 C24.21496094 25.3403125 23.42992187 25.680625 22.62109375 26.03125 C11.73574938 31.05320028 6.17844446 36.78827324 2 48 C1.34 48 0.68 48 0 48 C-0.3403125 47.21496094 -0.680625 46.42992187 -1.03125 45.62109375 C-6.05320028 34.73574938 -11.78827324 29.17844446 -23 25 C-23 24.34 -23 23.68 -23 23 C-22.21496094 22.6596875 -21.42992187 22.319375 -20.62109375 21.96875 C-9.73574938 16.94679972 -4.17844446 11.21172676 0 0 Z " fill="#F8F6EE" transform="translate(967,944)"/>
<path d="M0 0 C0.33 0 0.66 0 1 0 C0.99830811 1.02770508 0.99830811 1.02770508 0.99658203 2.07617188 C1.00878183 5.21841632 1.06654956 8.35828905 1.125 11.5 C1.12113281 13.11648438 1.12113281 13.11648438 1.1171875 14.765625 C1.28147511 21.50141688 2.18466855 25.23853427 6.6328125 30.33691406 C8.44535901 32.54174742 8.82090061 34.29863075 8.9375 37.125 C8.97617187 37.9603125 9.01484375 38.795625 9.0546875 39.65625 C8.98796947 42.5155941 8.65922998 45.21658451 8 48 C4.58864174 47.7473068 3.78062489 46.76495524 1.375 44.1875 C-2.47428734 39.0213512 -3.24610875 36.28987228 -3.125 29.75 C-3.10695313 28.48671875 -3.08890625 27.2234375 -3.0703125 25.921875 C-3.03550781 24.47554687 -3.03550781 24.47554687 -3 23 C-2.01 22.67 -1.02 22.34 0 22 C0 14.74 0 7.48 0 0 Z " fill="#5E4630" transform="translate(621,510)"/>
<path d="M0 0 C5.24831782 5.24831782 4.25733626 16.00105627 4.2734375 22.96484375 C4.26570312 24.09019531 4.25796875 25.21554687 4.25 26.375 C4.25773438 27.52355469 4.26546875 28.67210937 4.2734375 29.85546875 C4.27085937 30.96277344 4.26828125 32.07007813 4.265625 33.2109375 C4.26336914 34.20399902 4.26111328 35.19706055 4.25878906 36.22021484 C3.9860017 39.15036287 3.22422348 41.33819532 2 44 C-0.09671181 39.94635717 -1.12680169 36.7443423 -1.1328125 32.16796875 C-1.13474609 31.21027588 -1.13667969 30.25258301 -1.13867188 29.26586914 C-1.1319043 27.74207642 -1.1319043 27.74207642 -1.125 26.1875 C-1.12306641 25.15681396 -1.12113281 24.12612793 -1.11914062 23.06420898 C-1.07559259 15.33745742 -0.74671697 7.69385159 0 0 Z " fill="#E4DECD" transform="translate(614,507)"/>
<path d="M0 0 C0.88602402 0.00222061 1.77204803 0.00444122 2.68492126 0.00672913 C3.68588333 0.00680466 4.6868454 0.00688019 5.71813965 0.00695801 C6.80666733 0.01211929 7.89519501 0.01728058 9.01670837 0.02259827 C10.67928932 0.02472069 10.67928932 0.02472069 12.37545776 0.02688599 C15.93168281 0.03250418 19.48784596 0.04505977 23.04405212 0.05775452 C25.44834809 0.06276717 27.85264504 0.06733048 30.25694275 0.07142639 C36.16516716 0.08247952 42.07335522 0.09923535 47.98155212 0.12025452 C47.98155212 0.45025452 47.98155212 0.78025452 47.98155212 1.12025452 C35.11155212 1.12025452 22.24155212 1.12025452 8.98155212 1.12025452 C9.31155212 1.78025452 9.64155212 2.44025452 9.98155212 3.12025452 C10.64155212 3.12025452 11.30155212 3.12025452 11.98155212 3.12025452 C12.31155212 4.77025452 12.64155212 6.42025452 12.98155212 8.12025452 C10.50231411 8.14710547 8.02336373 8.16701999 5.54405212 8.18275452 C4.83700134 8.19113342 4.12995056 8.19951233 3.401474 8.20814514 C1.59461653 8.21679039 -0.2123239 8.17245463 -2.01844788 8.12025452 C-3.01844788 7.12025452 -3.01844788 7.12025452 -3.14344788 4.12025452 C-2.9791661 0.17749192 -2.9791661 0.17749192 0 0 Z " fill="#574029" transform="translate(391.01844787597656,646.8797454833984)"/>
<path d="M0 0 C0 1.32 0 2.64 0 4 C-1.86967605 4.98929461 -3.74601378 5.96600469 -5.625 6.9375 C-7.19121094 7.75541016 -7.19121094 7.75541016 -8.7890625 8.58984375 C-11.92416918 9.96669717 -14.61454632 10.59842216 -18 11 C-18.33 9.35 -18.66 7.7 -19 6 C-16.20964954 4.99619084 -13.41785145 3.9968055 -10.625 3 C-9.43390625 2.57074219 -9.43390625 2.57074219 -8.21875 2.1328125 C-7.45820312 1.86210937 -6.69765625 1.59140625 -5.9140625 1.3125 C-4.8614624 0.93544922 -4.8614624 0.93544922 -3.78759766 0.55078125 C-2 0 -2 0 0 0 Z " fill="#E6E0CE" transform="translate(533,424)"/>
<path d="M0 0 C4.82380802 -0.0246519 9.64757967 -0.04283693 14.47143555 -0.05493164 C16.11369464 -0.05997174 17.75594923 -0.06680378 19.39819336 -0.07543945 C21.75375479 -0.08751926 24.10925709 -0.09323139 26.46484375 -0.09765625 C27.20339096 -0.10281754 27.94193817 -0.10797882 28.7028656 -0.11329651 C30.46898088 -0.1134925 32.23497146 -0.06194719 34 0 C35 1 35 1 35.125 4 C35 7 35 7 34 8 C31.32941149 8.14115161 28.67567762 8.04247107 26 8 C26.66 7.67 27.32 7.34 28 7 C27.67 5.68 27.34 4.36 27 3 C27.66 2.67 28.32 2.34 29 2 C19.43 1.67 9.86 1.34 0 1 C0 0.67 0 0.34 0 0 Z " fill="#5A442D" transform="translate(625,647)"/>
<path d="M0 0 C0.99 0.33 1.98 0.66 3 1 C3 1.99 3 2.98 3 4 C3.99 4.33 4.98 4.66 6 5 C2.37 5 -1.26 5 -5 5 C-4.34 4.67 -3.68 4.34 -3 4 C-3 3.34 -3 2.68 -3 2 C-2.01 2 -1.02 2 0 2 C0 1.34 0 0.68 0 0 Z " fill="#5A412A" transform="translate(607,636)"/>
<path d="M0 0 C0 2.97 0 5.94 0 9 C-0.99 9.33 -1.98 9.66 -3 10 C-3 7.03 -3 4.06 -3 1 C-1 0 -1 0 0 0 Z " fill="#4B341F" transform="translate(621,523)"/>
<path d="M0 0 C1.98 0.99 1.98 0.99 4 2 C3.34 2.66 2.68 3.32 2 4 C1.53709779 6.66242821 1.53709779 6.66242821 1.375 9.625 C1.30023437 10.62789062 1.22546875 11.63078125 1.1484375 12.6640625 C1.09945312 13.43492187 1.05046875 14.20578125 1 15 C0.67 15 0.34 15 0 15 C0 10.05 0 5.1 0 0 Z " fill="#D9D2BF" transform="translate(511,538)"/>
<path d="M0 0 C1.9375 0.3125 1.9375 0.3125 4 1 C4.33 1.99 4.66 2.98 5 4 C3.68 4.33 2.36 4.66 1 5 C0.67 3.35 0.34 1.7 0 0 Z " fill="#EEE9D9" transform="translate(514,430)"/>
</svg>